<mxfile host="app.diagrams.net" modified="2023-12-04T12:32:48.125Z" agent="Mozilla/5.0 (Windows NT 10.0; Win64; x64) AppleWebKit/537.36 (KHTML, like Gecko) Chrome/116.0.5845.686 YaBrowser/23.9.5.686 Yowser/2.5 Safari/537.36" etag="E8R07tK5dSaso5FBrNr6" version="22.1.5" type="device">
  <diagram name="Страница — 1" id="mOLH24E5X_sblG0t6ZPV">
    <mxGraphModel dx="1102" dy="450" grid="1" gridSize="10" guides="1" tooltips="1" connect="1" arrows="1" fold="1" page="1" pageScale="1" pageWidth="827" pageHeight="1169" math="0" shadow="0">
      <root>
        <mxCell id="0" />
        <mxCell id="1" parent="0" />
        <mxCell id="gybRl9ON68crIwRpZKWw-13" value="" style="edgeStyle=orthogonalEdgeStyle;rounded=0;orthogonalLoop=1;jettySize=auto;html=1;" edge="1" parent="1" source="gybRl9ON68crIwRpZKWw-3" target="gybRl9ON68crIwRpZKWw-5">
          <mxGeometry relative="1" as="geometry" />
        </mxCell>
        <mxCell id="gybRl9ON68crIwRpZKWw-3" value="начало" style="strokeWidth=2;html=1;shape=mxgraph.flowchart.terminator;whiteSpace=wrap;" vertex="1" parent="1">
          <mxGeometry x="260" y="10" width="200" height="60" as="geometry" />
        </mxCell>
        <mxCell id="gybRl9ON68crIwRpZKWw-4" value="Конец" style="strokeWidth=2;html=1;shape=mxgraph.flowchart.terminator;whiteSpace=wrap;" vertex="1" parent="1">
          <mxGeometry x="250" y="1550" width="175" height="60" as="geometry" />
        </mxCell>
        <mxCell id="gybRl9ON68crIwRpZKWw-15" value="" style="edgeStyle=orthogonalEdgeStyle;rounded=0;orthogonalLoop=1;jettySize=auto;html=1;" edge="1" parent="1" source="gybRl9ON68crIwRpZKWw-5" target="gybRl9ON68crIwRpZKWw-6">
          <mxGeometry relative="1" as="geometry" />
        </mxCell>
        <mxCell id="gybRl9ON68crIwRpZKWw-5" value="ввод количесва&lt;br&gt;&amp;nbsp;элементов массива" style="shape=parallelogram;html=1;strokeWidth=2;perimeter=parallelogramPerimeter;whiteSpace=wrap;rounded=1;arcSize=12;size=0.23;" vertex="1" parent="1">
          <mxGeometry x="255" y="120" width="210" height="80" as="geometry" />
        </mxCell>
        <mxCell id="gybRl9ON68crIwRpZKWw-16" value="" style="edgeStyle=orthogonalEdgeStyle;rounded=0;orthogonalLoop=1;jettySize=auto;html=1;" edge="1" parent="1" source="gybRl9ON68crIwRpZKWw-6" target="gybRl9ON68crIwRpZKWw-8">
          <mxGeometry relative="1" as="geometry" />
        </mxCell>
        <mxCell id="gybRl9ON68crIwRpZKWw-23" style="edgeStyle=orthogonalEdgeStyle;rounded=0;orthogonalLoop=1;jettySize=auto;html=1;exitX=1;exitY=0.5;exitDx=0;exitDy=0;entryX=0.5;entryY=0;entryDx=0;entryDy=0;" edge="1" parent="1" source="gybRl9ON68crIwRpZKWw-6" target="gybRl9ON68crIwRpZKWw-11">
          <mxGeometry relative="1" as="geometry">
            <mxPoint x="360" y="790" as="targetPoint" />
            <Array as="points">
              <mxPoint x="590" y="280" />
              <mxPoint x="590" y="780" />
              <mxPoint x="360" y="780" />
              <mxPoint x="360" y="820" />
            </Array>
          </mxGeometry>
        </mxCell>
        <mxCell id="gybRl9ON68crIwRpZKWw-6" value="I от 0 до n-1&amp;nbsp;" style="shape=hexagon;perimeter=hexagonPerimeter2;whiteSpace=wrap;html=1;fixedSize=1;" vertex="1" parent="1">
          <mxGeometry x="242.5" y="240" width="235" height="80" as="geometry" />
        </mxCell>
        <mxCell id="gybRl9ON68crIwRpZKWw-17" value="" style="edgeStyle=orthogonalEdgeStyle;rounded=0;orthogonalLoop=1;jettySize=auto;html=1;" edge="1" parent="1" source="gybRl9ON68crIwRpZKWw-8" target="gybRl9ON68crIwRpZKWw-9">
          <mxGeometry relative="1" as="geometry" />
        </mxCell>
        <mxCell id="gybRl9ON68crIwRpZKWw-8" value="Ввод i элемента массива" style="shape=parallelogram;html=1;strokeWidth=2;perimeter=parallelogramPerimeter;whiteSpace=wrap;rounded=1;arcSize=12;size=0.23;" vertex="1" parent="1">
          <mxGeometry x="225" y="350" width="270" height="80" as="geometry" />
        </mxCell>
        <mxCell id="gybRl9ON68crIwRpZKWw-18" value="" style="edgeStyle=orthogonalEdgeStyle;rounded=0;orthogonalLoop=1;jettySize=auto;html=1;" edge="1" parent="1" source="gybRl9ON68crIwRpZKWw-9" target="gybRl9ON68crIwRpZKWw-10">
          <mxGeometry relative="1" as="geometry" />
        </mxCell>
        <mxCell id="gybRl9ON68crIwRpZKWw-19" value="Да" style="edgeLabel;html=1;align=center;verticalAlign=middle;resizable=0;points=[];" vertex="1" connectable="0" parent="gybRl9ON68crIwRpZKWw-18">
          <mxGeometry x="-0.7" relative="1" as="geometry">
            <mxPoint y="16" as="offset" />
          </mxGeometry>
        </mxCell>
        <mxCell id="gybRl9ON68crIwRpZKWw-21" style="edgeStyle=orthogonalEdgeStyle;rounded=0;orthogonalLoop=1;jettySize=auto;html=1;" edge="1" parent="1" source="gybRl9ON68crIwRpZKWw-9">
          <mxGeometry relative="1" as="geometry">
            <mxPoint x="370" y="750" as="targetPoint" />
            <Array as="points">
              <mxPoint x="510" y="510" />
              <mxPoint x="510" y="750" />
              <mxPoint x="461" y="750" />
            </Array>
          </mxGeometry>
        </mxCell>
        <mxCell id="gybRl9ON68crIwRpZKWw-22" value="Нет" style="edgeLabel;html=1;align=center;verticalAlign=middle;resizable=0;points=[];" vertex="1" connectable="0" parent="gybRl9ON68crIwRpZKWw-21">
          <mxGeometry x="-0.8742" y="1" relative="1" as="geometry">
            <mxPoint as="offset" />
          </mxGeometry>
        </mxCell>
        <mxCell id="gybRl9ON68crIwRpZKWw-9" value="длина &amp;lt;=3" style="strokeWidth=2;html=1;shape=mxgraph.flowchart.decision;whiteSpace=wrap;" vertex="1" parent="1">
          <mxGeometry x="275" y="460" width="170" height="100" as="geometry" />
        </mxCell>
        <mxCell id="gybRl9ON68crIwRpZKWw-20" style="edgeStyle=orthogonalEdgeStyle;rounded=0;orthogonalLoop=1;jettySize=auto;html=1;entryX=0;entryY=0.5;entryDx=0;entryDy=0;" edge="1" parent="1" source="gybRl9ON68crIwRpZKWw-10" target="gybRl9ON68crIwRpZKWw-6">
          <mxGeometry relative="1" as="geometry">
            <mxPoint x="287.5" y="690" as="sourcePoint" />
            <mxPoint x="170" y="350" as="targetPoint" />
            <Array as="points">
              <mxPoint x="370" y="750" />
              <mxPoint x="170" y="750" />
              <mxPoint x="170" y="280" />
            </Array>
          </mxGeometry>
        </mxCell>
        <mxCell id="gybRl9ON68crIwRpZKWw-10" value="Увеличиваем количество элементов&lt;br&gt;в новом массиве" style="rounded=1;whiteSpace=wrap;html=1;absoluteArcSize=1;arcSize=14;strokeWidth=2;" vertex="1" parent="1">
          <mxGeometry x="275" y="620" width="170" height="100" as="geometry" />
        </mxCell>
        <mxCell id="gybRl9ON68crIwRpZKWw-33" style="edgeStyle=orthogonalEdgeStyle;rounded=0;orthogonalLoop=1;jettySize=auto;html=1;exitX=1;exitY=0.5;exitDx=0;exitDy=0;entryX=0.5;entryY=0;entryDx=0;entryDy=0;" edge="1" parent="1" source="gybRl9ON68crIwRpZKWw-11" target="gybRl9ON68crIwRpZKWw-32">
          <mxGeometry relative="1" as="geometry">
            <mxPoint x="360" y="1240" as="targetPoint" />
            <Array as="points">
              <mxPoint x="550" y="860" />
              <mxPoint x="550" y="1230" />
              <mxPoint x="360" y="1230" />
            </Array>
          </mxGeometry>
        </mxCell>
        <mxCell id="gybRl9ON68crIwRpZKWw-11" value="j от 0 до ь-1" style="shape=hexagon;perimeter=hexagonPerimeter2;whiteSpace=wrap;html=1;fixedSize=1;" vertex="1" parent="1">
          <mxGeometry x="275" y="820" width="160" height="80" as="geometry" />
        </mxCell>
        <mxCell id="gybRl9ON68crIwRpZKWw-27" value="" style="edgeStyle=orthogonalEdgeStyle;rounded=0;orthogonalLoop=1;jettySize=auto;html=1;" edge="1" parent="1" source="gybRl9ON68crIwRpZKWw-24" target="gybRl9ON68crIwRpZKWw-25">
          <mxGeometry relative="1" as="geometry" />
        </mxCell>
        <mxCell id="gybRl9ON68crIwRpZKWw-28" value="Да" style="edgeLabel;html=1;align=center;verticalAlign=middle;resizable=0;points=[];" vertex="1" connectable="0" parent="gybRl9ON68crIwRpZKWw-27">
          <mxGeometry x="0.28" relative="1" as="geometry">
            <mxPoint as="offset" />
          </mxGeometry>
        </mxCell>
        <mxCell id="gybRl9ON68crIwRpZKWw-24" value="длина &amp;lt;=3" style="rhombus;whiteSpace=wrap;html=1;" vertex="1" parent="1">
          <mxGeometry x="250" y="920" width="220" height="120" as="geometry" />
        </mxCell>
        <mxCell id="gybRl9ON68crIwRpZKWw-26" style="edgeStyle=orthogonalEdgeStyle;rounded=0;orthogonalLoop=1;jettySize=auto;html=1;entryX=0;entryY=0.5;entryDx=0;entryDy=0;" edge="1" parent="1" source="gybRl9ON68crIwRpZKWw-25" target="gybRl9ON68crIwRpZKWw-11">
          <mxGeometry relative="1" as="geometry">
            <Array as="points">
              <mxPoint x="360" y="1210" />
              <mxPoint x="210" y="1210" />
              <mxPoint x="210" y="860" />
            </Array>
          </mxGeometry>
        </mxCell>
        <mxCell id="gybRl9ON68crIwRpZKWw-25" value="Копируем элемент в новый массив" style="rounded=0;whiteSpace=wrap;html=1;" vertex="1" parent="1">
          <mxGeometry x="267.5" y="1070" width="185" height="110" as="geometry" />
        </mxCell>
        <mxCell id="gybRl9ON68crIwRpZKWw-30" style="edgeStyle=orthogonalEdgeStyle;rounded=0;orthogonalLoop=1;jettySize=auto;html=1;exitX=1;exitY=0.5;exitDx=0;exitDy=0;" edge="1" parent="1" source="gybRl9ON68crIwRpZKWw-24">
          <mxGeometry relative="1" as="geometry">
            <mxPoint x="360" y="1210" as="targetPoint" />
            <Array as="points">
              <mxPoint x="490" y="980" />
              <mxPoint x="490" y="1210" />
              <mxPoint x="452" y="1210" />
            </Array>
          </mxGeometry>
        </mxCell>
        <mxCell id="gybRl9ON68crIwRpZKWw-31" value="Нет" style="edgeLabel;html=1;align=center;verticalAlign=middle;resizable=0;points=[];" vertex="1" connectable="0" parent="gybRl9ON68crIwRpZKWw-30">
          <mxGeometry x="-0.7684" relative="1" as="geometry">
            <mxPoint as="offset" />
          </mxGeometry>
        </mxCell>
        <mxCell id="gybRl9ON68crIwRpZKWw-35" value="" style="edgeStyle=orthogonalEdgeStyle;rounded=0;orthogonalLoop=1;jettySize=auto;html=1;" edge="1" parent="1" source="gybRl9ON68crIwRpZKWw-32" target="gybRl9ON68crIwRpZKWw-34">
          <mxGeometry relative="1" as="geometry" />
        </mxCell>
        <mxCell id="gybRl9ON68crIwRpZKWw-32" value="j от0 до m-1" style="shape=hexagon;perimeter=hexagonPerimeter2;whiteSpace=wrap;html=1;fixedSize=1;" vertex="1" parent="1">
          <mxGeometry x="270" y="1270" width="180" height="80" as="geometry" />
        </mxCell>
        <mxCell id="gybRl9ON68crIwRpZKWw-36" style="edgeStyle=orthogonalEdgeStyle;rounded=0;orthogonalLoop=1;jettySize=auto;html=1;entryX=0;entryY=0.5;entryDx=0;entryDy=0;" edge="1" parent="1" target="gybRl9ON68crIwRpZKWw-32">
          <mxGeometry relative="1" as="geometry">
            <mxPoint x="360" y="1450" as="sourcePoint" />
            <mxPoint x="270" y="1290" as="targetPoint" />
            <Array as="points">
              <mxPoint x="360" y="1500" />
              <mxPoint x="250" y="1500" />
              <mxPoint x="250" y="1310" />
            </Array>
          </mxGeometry>
        </mxCell>
        <mxCell id="gybRl9ON68crIwRpZKWw-34" value="Ввод j-ого&amp;nbsp;&lt;br&gt;элнмента массива" style="shape=parallelogram;perimeter=parallelogramPerimeter;whiteSpace=wrap;html=1;fixedSize=1;" vertex="1" parent="1">
          <mxGeometry x="270" y="1410" width="180" height="60" as="geometry" />
        </mxCell>
        <mxCell id="gybRl9ON68crIwRpZKWw-37" style="edgeStyle=orthogonalEdgeStyle;rounded=0;orthogonalLoop=1;jettySize=auto;html=1;entryX=1.017;entryY=0.617;entryDx=0;entryDy=0;entryPerimeter=0;" edge="1" parent="1" source="gybRl9ON68crIwRpZKWw-32" target="gybRl9ON68crIwRpZKWw-4">
          <mxGeometry relative="1" as="geometry">
            <Array as="points">
              <mxPoint x="520" y="1310" />
              <mxPoint x="520" y="1587" />
            </Array>
          </mxGeometry>
        </mxCell>
      </root>
    </mxGraphModel>
  </diagram>
</mxfile>
